<svg xmlns="http://www.w3.org/2000/svg" xmlns:xlink="http://www.w3.org/1999/xlink" preserveAspectRatio="xMidYMid" width="80" height="80" viewBox="0 0 80 80">
  <defs>
    <style>
      .cls-1 {
        fill: url(#linear-gradient-1);
        fill-rule: evenodd;
      }
    </style>

    <linearGradient id="linear-gradient-1" gradientUnits="userSpaceOnUse" y1="80" x2="80">
      <stop offset="0" stop-color="#0012fc"/>
      <stop offset="1" stop-color="#2997fd"/>
    </linearGradient>
  </defs>
  <path d="M57.333,45.332 C44.835,45.332 34.667,35.166 34.667,22.666 C34.667,10.169 44.835,-0.001 57.333,-0.001 C69.832,-0.001 80.000,10.169 80.000,22.666 C80.000,35.166 69.832,45.332 57.333,45.332 ZM57.333,2.667 C46.305,2.667 37.333,11.638 37.333,22.666 C37.333,33.694 46.305,42.666 57.333,42.666 C68.361,42.666 77.333,33.694 77.333,22.666 C77.333,11.638 68.361,2.667 57.333,2.667 ZM57.333,39.999 C47.776,39.999 40.000,32.224 40.000,22.666 C40.000,13.109 47.776,5.333 57.333,5.333 C66.891,5.333 74.667,13.109 74.667,22.666 C74.667,32.224 66.891,39.999 57.333,39.999 ZM57.333,8.000 C49.247,8.000 42.667,14.580 42.667,22.666 C42.667,30.753 49.247,37.333 57.333,37.333 C65.420,37.333 72.000,30.753 72.000,22.666 C72.000,14.580 65.420,8.000 57.333,8.000 ZM66.667,23.999 L66.667,21.334 L69.333,21.334 L69.333,23.999 L66.667,23.999 ZM56.000,21.334 L58.667,21.334 C61.608,21.334 64.000,23.725 64.000,26.666 C64.000,29.607 61.608,31.999 58.667,31.999 L58.667,34.666 L56.000,34.666 L56.000,31.999 C53.059,31.999 50.667,29.607 50.667,26.666 L53.333,26.666 C53.333,28.137 54.529,29.333 56.000,29.333 L58.667,29.333 C60.137,29.333 61.333,28.137 61.333,26.666 C61.333,25.195 60.137,23.999 58.667,23.999 L56.000,23.999 C53.059,23.999 50.667,21.607 50.667,18.667 C50.667,15.725 53.059,13.334 56.000,13.334 L56.000,10.666 L58.667,10.666 L58.667,13.334 C61.608,13.334 64.000,15.725 64.000,18.667 L61.333,18.667 C61.333,17.195 60.137,16.001 58.667,16.001 L56.000,16.001 C54.529,16.001 53.333,17.195 53.333,18.667 C53.333,20.137 54.529,21.334 56.000,21.334 ZM45.333,21.334 L48.000,21.334 L48.000,23.999 L45.333,23.999 L45.333,21.334 ZM38.667,43.998 L38.667,80.000 L36.000,80.000 L36.000,45.501 C33.701,46.097 32.000,48.187 32.000,50.666 L32.000,54.665 L32.000,70.667 C32.000,72.872 30.205,74.666 28.000,74.666 L14.667,74.666 L14.667,80.000 L12.000,80.000 L12.000,74.666 L9.333,74.666 C7.128,74.666 5.333,72.872 5.333,70.667 L5.333,70.420 C4.915,70.570 4.469,70.667 4.000,70.667 C1.795,70.667 -0.000,68.872 -0.000,66.666 C-0.000,65.638 0.401,64.709 1.040,64.000 C0.401,63.291 -0.000,62.362 -0.000,61.333 C-0.000,60.305 0.401,59.375 1.040,58.666 C0.401,57.958 -0.000,57.028 -0.000,55.999 C-0.000,54.973 0.401,54.041 1.040,53.333 C0.401,52.624 -0.000,51.695 -0.000,50.666 C-0.000,48.460 1.795,46.666 4.000,46.666 C4.469,46.666 4.915,46.763 5.333,46.912 L5.333,36.000 C5.333,33.794 7.128,31.999 9.333,31.999 L28.000,31.999 C30.205,31.999 32.000,33.794 32.000,36.000 L32.000,44.720 C33.417,43.448 35.283,42.666 37.333,42.666 C38.071,42.666 38.667,43.263 38.667,43.998 ZM4.000,49.333 C3.264,49.333 2.667,49.933 2.667,50.666 C2.667,51.401 3.264,51.999 4.000,51.999 C4.736,51.999 5.333,51.401 5.333,50.666 C5.333,49.933 4.736,49.333 4.000,49.333 ZM4.000,54.665 C3.264,54.665 2.667,55.265 2.667,55.999 C2.667,56.734 3.264,57.334 4.000,57.334 C4.736,57.334 5.333,56.734 5.333,55.999 C5.333,55.265 4.736,54.665 4.000,54.665 ZM4.000,60.001 C3.264,60.001 2.667,60.598 2.667,61.333 C2.667,62.068 3.264,62.666 4.000,62.666 C4.736,62.666 5.333,62.068 5.333,61.333 C5.333,60.598 4.736,60.001 4.000,60.001 ZM4.000,65.333 C3.264,65.333 2.667,65.932 2.667,66.666 C2.667,67.401 3.264,68.000 4.000,68.000 C4.736,68.000 5.333,67.401 5.333,66.666 C5.333,65.932 4.736,65.333 4.000,65.333 ZM29.333,36.000 C29.333,35.265 28.736,34.666 28.000,34.666 L9.333,34.666 C8.597,34.666 8.000,35.265 8.000,36.000 L8.000,38.667 L29.333,38.667 L29.333,36.000 ZM29.333,54.665 L29.333,50.666 L29.333,41.333 L8.000,41.333 L8.000,65.333 L29.333,65.333 L29.333,54.665 ZM29.333,68.000 L8.000,68.000 L8.000,70.667 C8.000,71.402 8.597,72.000 9.333,72.000 L28.000,72.000 C28.736,72.000 29.333,71.402 29.333,70.667 L29.333,68.000 ZM17.333,54.114 L24.391,47.058 L26.276,48.943 L18.276,56.943 C18.016,57.202 17.675,57.334 17.333,57.334 C16.992,57.334 16.651,57.202 16.391,56.943 L12.391,52.942 L14.276,51.058 L17.333,54.114 ZM29.333,16.001 L32.000,16.001 L32.000,18.667 L29.333,18.667 L29.333,16.001 ZM24.000,16.001 L26.667,16.001 L26.667,18.667 L24.000,18.667 L24.000,16.001 ZM18.667,16.001 L21.333,16.001 L21.333,18.667 L18.667,18.667 L18.667,16.001 ZM13.333,26.666 L16.000,26.666 L16.000,29.333 L13.333,29.333 L13.333,26.666 ZM13.333,21.334 L16.000,21.334 L16.000,23.999 L13.333,23.999 L13.333,21.334 ZM13.333,16.001 L16.000,16.001 L16.000,18.667 L13.333,18.667 L13.333,16.001 ZM44.000,69.333 L41.333,69.333 L41.333,66.666 L44.000,66.666 L44.000,69.333 ZM49.333,69.333 L46.667,69.333 L46.667,66.666 L49.333,66.666 L49.333,69.333 ZM54.667,69.333 L52.000,69.333 L52.000,66.666 L54.667,66.666 L54.667,69.333 ZM60.000,69.333 L57.333,69.333 L57.333,66.666 L60.000,66.666 L60.000,69.333 ZM65.333,69.333 L62.667,69.333 L62.667,66.666 L65.333,66.666 L65.333,69.333 ZM70.667,48.000 L68.000,48.000 L68.000,45.332 L70.667,45.332 L70.667,48.000 ZM70.667,53.333 L68.000,53.333 L68.000,50.666 L70.667,50.666 L70.667,53.333 ZM70.667,58.666 L68.000,58.666 L68.000,55.999 L70.667,55.999 L70.667,58.666 ZM70.667,64.000 L68.000,64.000 L68.000,61.333 L70.667,61.333 L70.667,64.000 ZM70.667,69.333 L68.000,69.333 L68.000,66.666 L70.667,66.666 L70.667,69.333 Z" class="cls-1"/>
</svg>
