<svg xmlns="http://www.w3.org/2000/svg" xmlns:xlink="http://www.w3.org/1999/xlink" preserveAspectRatio="xMidYMid" width="80" height="80" viewBox="0 0 80 80">
  <defs>
    <style>
      .cls-1 {
        fill: url(#linear-gradient-1);
        fill-rule: evenodd;
      }
    </style>

    <linearGradient id="linear-gradient-1" gradientUnits="userSpaceOnUse" y1="80" x2="80">
      <stop offset="0" stop-color="#0012fc"/>
      <stop offset="1" stop-color="#2997fd"/>
    </linearGradient>
  </defs>
  <path d="M78.667,80.000 L64.000,80.000 C62.264,80.000 60.798,78.881 60.246,77.333 L53.571,77.333 C53.130,77.333 52.758,77.105 52.516,76.777 L40.910,79.438 C40.611,79.508 40.306,79.541 39.999,79.541 C39.694,79.541 39.387,79.508 39.089,79.438 L17.036,74.403 C16.884,74.368 16.738,74.307 16.608,74.221 L1.796,64.637 C0.672,63.911 0.000,62.687 0.000,61.365 L0.000,58.472 C0.000,57.239 0.573,56.101 1.572,55.353 C2.601,54.582 3.905,54.353 5.148,54.713 L25.536,60.694 C25.942,59.381 26.930,58.297 28.278,57.760 L38.718,53.620 C39.485,53.316 40.318,53.251 41.121,53.434 L52.244,55.957 C52.268,55.241 52.848,54.666 53.570,54.666 L60.244,54.666 C60.796,53.118 62.263,51.999 63.999,51.999 L78.665,51.999 C79.403,51.999 79.999,52.596 80.000,53.334 L80.000,78.666 C80.000,79.404 79.404,80.000 78.667,80.000 ZM40.533,56.036 C40.255,55.974 39.967,55.996 39.703,56.101 L29.263,60.246 C28.495,60.551 27.999,61.261 27.999,62.053 C27.999,63.123 28.921,64.000 30.053,64.000 L39.999,64.000 C40.735,64.000 41.333,64.595 41.333,65.333 C41.333,66.070 40.735,66.666 39.999,66.666 L30.053,66.666 C27.964,66.666 26.186,65.327 25.565,63.490 L4.396,57.274 C3.967,57.144 3.521,57.227 3.169,57.488 C2.981,57.629 2.667,57.942 2.667,58.471 L2.667,61.362 C2.667,61.778 2.883,62.163 3.244,62.397 L17.860,71.855 L39.685,76.840 C39.891,76.888 40.109,76.888 40.313,76.840 L51.915,74.179 L51.994,58.636 L40.533,56.036 ZM59.999,57.333 L54.666,57.333 L54.666,74.666 L59.999,74.666 L59.999,57.333 ZM77.332,54.666 L63.999,54.666 C63.263,54.666 62.666,55.263 62.666,56.000 L62.666,76.000 C62.666,76.736 63.263,77.333 63.999,77.333 L77.332,77.333 L77.332,54.666 ZM68.237,71.999 L72.237,71.999 C72.975,71.999 73.571,72.596 73.571,73.332 C73.571,74.070 72.975,74.666 72.237,74.666 L68.237,74.666 C67.500,74.666 66.904,74.070 66.904,73.332 C66.904,72.596 67.500,71.999 68.237,71.999 ZM66.666,31.999 C65.928,31.999 65.332,31.403 65.332,30.667 L65.332,20.000 C65.332,19.262 65.928,18.666 66.666,18.666 C67.403,18.666 67.999,19.262 67.999,20.000 L67.999,30.667 C67.999,31.403 67.403,31.999 66.666,31.999 ZM66.666,15.999 C65.928,15.999 65.332,15.403 65.332,14.667 L65.332,12.000 C65.332,11.262 65.928,10.667 66.666,10.667 C67.403,10.667 67.999,11.262 67.999,12.000 L67.999,14.667 C67.999,15.403 67.403,15.999 66.666,15.999 ZM40.351,49.332 C40.314,49.332 40.274,49.332 40.235,49.332 C30.437,49.332 22.434,41.230 22.372,31.418 C22.334,25.633 25.077,20.316 29.333,17.021 L29.333,9.334 C29.333,8.595 29.930,8.000 30.666,8.000 C31.402,8.000 31.999,8.595 31.999,9.334 L31.999,15.306 C34.435,14.033 37.191,13.334 40.123,13.334 C40.161,13.334 40.201,13.334 40.239,13.334 C44.130,13.334 47.726,14.540 50.666,16.664 L50.666,10.667 C50.666,9.930 51.262,9.334 51.999,9.334 C52.736,9.334 53.332,9.930 53.332,10.667 L53.332,18.666 C53.332,18.771 53.295,18.945 53.272,19.043 C56.234,22.209 58.074,26.521 58.103,31.187 C58.167,41.039 50.203,49.332 40.351,49.332 ZM40.238,15.999 C40.205,15.999 40.173,15.999 40.139,15.999 C31.759,15.999 24.984,23.051 25.038,31.431 C25.092,39.779 31.899,46.666 40.235,46.666 C40.269,46.666 40.301,46.666 40.334,46.666 C48.715,46.666 55.490,39.615 55.435,31.237 C55.382,22.887 48.574,15.999 40.238,15.999 ZM49.333,33.333 C48.596,33.333 47.999,32.736 47.999,31.999 C47.999,31.262 48.596,30.667 49.333,30.667 C50.069,30.667 50.666,31.262 50.666,31.999 C50.666,32.736 50.069,33.333 49.333,33.333 ZM41.341,38.632 L41.349,39.990 C41.354,40.728 40.759,41.328 40.023,41.333 C40.021,41.333 40.018,41.333 40.015,41.333 C39.283,41.333 38.686,40.743 38.682,40.009 L38.674,38.649 L36.007,38.666 C36.005,38.666 36.002,38.666 35.999,38.666 C35.267,38.666 34.670,38.075 34.666,37.343 C34.662,36.606 35.255,36.006 35.991,36.001 L41.325,35.969 C42.061,35.963 42.655,35.364 42.650,34.628 L42.641,33.300 C42.638,32.941 42.497,32.618 42.245,32.367 C41.991,32.120 41.659,31.999 41.307,31.999 C41.305,31.999 41.302,31.999 41.299,31.999 L38.633,31.999 C38.625,31.999 38.615,31.999 38.607,31.999 C36.413,31.999 34.621,30.218 34.606,28.021 L34.598,26.685 C34.585,24.476 36.367,22.666 38.573,22.666 L38.674,22.666 L38.666,21.351 C38.662,20.614 39.255,20.005 39.991,20.000 C39.994,20.000 39.997,20.000 39.999,20.000 C40.731,20.000 41.329,20.603 41.333,21.337 L41.341,22.657 L43.905,22.666 C43.907,22.666 43.910,22.666 43.913,22.666 C44.646,22.666 45.241,23.231 45.246,23.967 C45.251,24.702 44.658,25.277 43.921,25.282 L40.153,25.306 C40.109,25.311 40.070,25.334 40.025,25.334 C40.022,25.334 40.019,25.334 40.017,25.334 C39.971,25.334 39.934,25.313 39.891,25.311 L38.590,25.319 C37.854,25.324 37.261,25.929 37.265,26.664 L37.273,27.999 C37.277,28.732 37.875,29.334 38.606,29.334 C38.609,29.334 38.611,29.334 38.614,29.334 L41.281,29.308 C42.307,29.272 43.355,29.703 44.117,30.453 C44.878,31.205 45.299,32.206 45.306,33.274 L45.315,34.606 C45.329,36.813 43.546,38.617 41.341,38.632 ZM30.666,33.333 C29.930,33.333 29.333,32.736 29.333,31.999 C29.333,31.262 29.930,30.667 30.666,30.667 C31.403,30.667 31.999,31.262 31.999,31.999 C31.999,32.736 31.403,33.333 30.666,33.333 ZM51.999,6.668 C51.262,6.668 50.666,6.070 50.666,5.333 L50.666,2.667 C50.666,1.929 51.262,1.333 51.999,1.333 C52.736,1.333 53.332,1.929 53.332,2.667 L53.332,5.333 C53.332,6.070 52.736,6.668 51.999,6.668 ZM30.666,5.333 C29.930,5.333 29.333,4.738 29.333,4.000 L29.333,1.333 C29.333,0.597 29.930,0.001 30.666,0.001 C31.402,0.001 31.999,0.597 31.999,1.333 L31.999,4.000 C31.999,4.738 31.402,5.333 30.666,5.333 ZM16.000,44.001 C15.264,44.001 14.666,43.405 14.666,42.666 L14.666,31.999 C14.666,31.262 15.264,30.667 16.000,30.667 C16.736,30.667 17.333,31.262 17.333,31.999 L17.333,42.666 C17.333,43.405 16.736,44.001 16.000,44.001 ZM16.000,27.999 C15.264,27.999 14.666,27.404 14.666,26.667 L14.666,23.999 C14.666,23.263 15.264,22.666 16.000,22.666 C16.736,22.666 17.333,23.263 17.333,23.999 L17.333,26.667 C17.333,27.404 16.736,27.999 16.000,27.999 Z" class="cls-1"/>
</svg>
