<svg xmlns="http://www.w3.org/2000/svg" xmlns:xlink="http://www.w3.org/1999/xlink" preserveAspectRatio="xMidYMid" width="86" height="80" viewBox="0 0 86 80">
  <defs>
    <style>
      .cls-1 {
        fill: url(#linear-gradient-1);
        fill-rule: evenodd;
      }
    </style>

    <linearGradient id="linear-gradient-1" gradientUnits="userSpaceOnUse" x1="3" y1="80" x2="83">
      <stop offset="0" stop-color="#0012fc"/>
      <stop offset="1" stop-color="#2997fd"/>
    </linearGradient>
  </defs>
  <path d="M83.217,71.589 C84.752,71.589 86.000,72.832 86.000,74.362 L86.000,77.225 C86.000,78.756 84.752,80.000 83.217,80.000 L2.783,80.000 C1.248,80.000 0.000,78.756 0.000,77.225 L0.000,74.362 C0.000,72.832 1.248,71.589 2.783,71.589 L5.844,71.589 C4.884,70.383 4.309,68.859 4.309,67.203 L4.309,50.543 C4.309,47.926 5.995,45.650 8.504,44.881 L18.575,41.792 C18.977,41.668 19.247,41.303 19.247,40.885 L19.247,37.097 L18.757,36.689 C17.654,35.772 16.921,34.488 16.694,33.075 L16.596,32.466 L15.997,32.466 C13.987,32.466 12.353,30.836 12.353,28.832 L12.353,26.542 C12.353,25.321 12.961,24.241 13.891,23.581 C13.739,23.282 13.627,22.961 13.564,22.626 C12.122,21.778 11.204,20.226 11.204,18.523 C11.204,17.718 11.411,16.933 11.801,16.234 C11.411,15.532 11.204,14.747 11.204,13.942 C11.204,12.245 12.115,10.708 13.529,9.859 C13.511,9.693 13.502,9.526 13.502,9.360 C13.502,6.947 15.305,4.946 17.638,4.627 C18.411,3.333 19.758,2.464 21.271,2.313 C22.220,1.557 23.388,1.146 24.615,1.146 C24.778,1.146 24.942,1.154 25.108,1.170 C26.130,0.411 27.360,-0.001 28.637,-0.001 C29.913,-0.001 31.143,0.411 32.165,1.170 C32.331,1.154 32.495,1.146 32.658,1.146 C33.882,1.146 35.069,1.574 36.020,2.341 C36.241,2.308 36.461,2.290 36.680,2.290 C38.382,2.290 39.933,3.199 40.785,4.627 C43.118,4.946 44.921,6.947 44.921,9.360 C44.921,9.526 44.912,9.693 44.894,9.859 C46.308,10.708 47.219,12.245 47.219,13.942 C47.219,14.747 47.011,15.532 46.622,16.234 C47.011,16.933 47.219,17.718 47.219,18.523 C47.219,20.226 46.300,21.778 44.859,22.626 C44.745,23.228 44.480,23.784 44.100,24.247 C44.613,24.874 44.921,25.672 44.921,26.542 L44.921,27.203 L80.345,27.203 C83.463,27.203 86.000,29.732 86.000,32.841 L86.000,58.613 C86.000,61.720 83.463,64.250 80.345,64.250 L67.615,64.250 L68.596,71.589 L83.217,71.589 ZM9.296,47.447 C7.924,47.867 7.002,49.112 7.002,50.543 L7.002,67.203 C7.002,69.621 8.975,71.587 11.401,71.587 L24.417,71.587 L24.417,67.113 L15.710,67.113 C14.175,67.113 12.927,65.871 12.927,64.340 L12.927,55.749 C12.927,55.008 13.530,54.407 14.273,54.407 C15.017,54.407 15.620,55.008 15.620,55.749 L15.620,64.340 C15.620,64.389 15.660,64.429 15.710,64.429 L30.073,64.429 C33.191,64.429 35.729,66.958 35.729,70.067 L35.729,71.587 L43.094,71.587 C43.092,71.558 43.090,71.529 43.090,71.498 L43.090,64.250 L37.255,64.250 C34.136,64.250 31.599,61.720 31.599,58.613 L31.599,52.916 C30.806,53.026 30.004,53.082 29.200,53.082 C23.535,53.082 18.216,50.329 14.948,45.712 L9.296,47.447 ZM27.111,67.113 L27.111,71.589 L33.035,71.589 L33.035,70.067 C33.035,68.439 31.706,67.113 30.073,67.113 L27.111,67.113 ZM17.682,44.875 C20.472,48.349 24.708,50.398 29.200,50.398 C30.006,50.398 30.809,50.332 31.599,50.204 L31.599,41.566 C31.348,41.607 31.092,41.630 30.836,41.630 L26.438,41.630 C25.318,41.630 24.229,41.235 23.369,40.521 L21.940,39.335 L21.940,40.885 C21.940,42.490 20.906,43.886 19.367,44.357 L17.682,44.875 ZM19.352,32.651 C19.476,33.423 19.877,34.125 20.481,34.628 L25.093,38.459 C25.469,38.771 25.947,38.944 26.437,38.944 L30.836,38.944 C31.098,38.944 31.357,38.893 31.599,38.799 L31.599,32.841 C31.599,29.732 34.136,27.203 37.254,27.203 L38.795,27.203 L39.083,25.410 C38.298,25.095 37.706,24.393 37.559,23.515 L36.935,19.781 C36.214,19.645 35.538,19.347 34.956,18.912 C34.139,19.524 33.136,19.867 32.084,19.867 C31.031,19.867 30.029,19.524 29.211,18.912 C28.394,19.524 27.391,19.867 26.338,19.867 C25.286,19.867 24.283,19.524 23.466,18.912 C22.884,19.347 22.208,19.645 21.487,19.781 L20.864,23.514 C20.662,24.718 19.627,25.593 18.402,25.593 L18.220,25.593 L19.352,32.651 ZM15.045,28.833 C15.045,29.355 15.472,29.781 15.997,29.781 L16.165,29.781 L15.514,25.729 C15.235,25.894 15.045,26.195 15.045,26.542 L15.045,28.833 ZM44.526,18.523 C44.526,17.875 44.228,17.408 43.978,17.130 C43.516,16.621 43.516,15.843 43.978,15.334 C44.228,15.056 44.526,14.591 44.526,13.942 C44.526,13.005 43.886,12.181 42.970,11.933 C42.599,11.833 42.288,11.580 42.117,11.237 C41.945,10.893 41.929,10.493 42.072,10.137 C42.176,9.881 42.228,9.620 42.228,9.360 C42.228,8.221 41.312,7.293 40.176,7.267 C40.112,7.274 40.058,7.282 40.003,7.284 C39.400,7.320 38.849,6.953 38.651,6.386 C38.356,5.542 37.564,4.975 36.680,4.975 C36.481,4.975 36.278,5.012 36.058,5.084 C35.550,5.256 34.990,5.110 34.630,4.716 C34.111,4.145 33.410,3.830 32.658,3.830 C32.477,3.830 32.284,3.853 32.070,3.901 C31.634,3.999 31.178,3.876 30.853,3.571 C30.242,2.999 29.455,2.685 28.637,2.685 C27.818,2.685 27.031,2.999 26.421,3.571 C26.095,3.876 25.638,3.999 25.203,3.901 C24.989,3.853 24.796,3.830 24.615,3.830 C23.913,3.830 23.249,4.102 22.744,4.595 C22.486,4.847 22.141,4.985 21.777,4.980 C21.751,4.980 21.725,4.977 21.699,4.976 C20.832,4.995 20.061,5.556 19.771,6.386 C19.573,6.953 19.022,7.319 18.420,7.284 C18.361,7.282 18.303,7.274 18.246,7.267 C17.110,7.295 16.194,8.221 16.194,9.361 C16.194,9.620 16.247,9.881 16.350,10.138 C16.493,10.493 16.477,10.893 16.305,11.237 C16.134,11.580 15.823,11.833 15.452,11.934 C14.536,12.181 13.896,13.005 13.896,13.942 C13.896,14.591 14.195,15.057 14.445,15.335 C14.906,15.845 14.906,16.621 14.445,17.130 C14.195,17.408 13.897,17.875 13.897,18.523 C13.897,19.404 14.465,20.193 15.312,20.488 C15.895,20.691 16.266,21.263 16.210,21.877 C16.206,21.918 16.201,21.959 16.196,21.999 C16.213,22.408 16.499,22.761 16.903,22.868 C16.947,22.879 18.234,22.909 18.234,22.909 L19.008,18.276 C19.123,17.592 19.744,17.106 20.437,17.159 C20.499,17.163 20.561,17.171 20.622,17.179 L20.630,17.180 C21.320,17.169 21.958,16.819 22.343,16.240 C22.593,15.865 23.014,15.640 23.465,15.640 C23.917,15.640 24.338,15.865 24.588,16.240 C24.980,16.830 25.634,17.180 26.338,17.180 C27.043,17.180 27.697,16.830 28.089,16.240 C28.338,15.865 28.760,15.640 29.211,15.640 C29.662,15.640 30.084,15.865 30.333,16.240 C30.725,16.830 31.379,17.180 32.084,17.180 C32.788,17.180 33.442,16.830 33.834,16.240 C34.084,15.866 34.505,15.640 34.956,15.640 C35.408,15.640 35.829,15.866 36.079,16.240 C36.464,16.819 37.102,17.169 37.792,17.180 L37.800,17.179 C37.861,17.172 37.922,17.164 37.985,17.159 C38.678,17.108 39.299,17.592 39.414,18.278 L40.188,22.909 C40.188,22.909 41.476,22.879 41.519,22.868 C41.923,22.761 42.209,22.408 42.227,22.000 C42.221,21.959 42.216,21.918 42.213,21.877 C42.157,21.263 42.527,20.691 43.111,20.488 C43.957,20.193 44.526,19.404 44.526,18.523 ZM41.522,27.203 L42.228,27.203 L42.228,26.542 C42.228,26.195 42.039,25.894 41.759,25.729 L41.522,27.203 ZM80.345,61.565 C81.978,61.565 83.307,60.241 83.307,58.613 L83.307,32.841 C83.307,31.214 81.978,29.888 80.345,29.888 L37.255,29.888 C35.621,29.888 34.292,31.214 34.292,32.841 L34.292,58.613 C34.292,60.241 35.621,61.565 37.255,61.565 L50.182,61.565 C50.236,61.565 50.289,61.570 50.342,61.577 L51.387,53.762 C51.666,51.681 53.464,50.111 55.569,50.111 L62.030,50.111 C64.136,50.111 65.934,51.681 66.212,53.762 L67.257,61.577 C67.310,61.570 67.363,61.565 67.418,61.565 L80.345,61.565 ZM45.778,71.589 L49.003,71.589 L49.984,64.251 L45.783,64.251 L45.783,71.498 C45.783,71.529 45.780,71.558 45.778,71.589 ZM51.720,71.589 L65.880,71.589 L63.543,54.118 C63.442,53.364 62.792,52.795 62.030,52.795 L55.569,52.795 C54.807,52.795 54.157,53.364 54.057,54.118 L51.720,71.589 ZM2.783,74.273 C2.733,74.273 2.693,74.312 2.693,74.362 L2.693,77.225 C2.693,77.275 2.733,77.314 2.783,77.314 L83.217,77.314 C83.267,77.314 83.307,77.275 83.307,77.225 L83.307,74.362 C83.307,74.312 83.267,74.273 83.217,74.273 L2.783,74.273 ZM58.800,47.070 C56.473,47.070 54.580,45.183 54.580,42.864 C54.580,40.544 56.473,38.657 58.800,38.657 C61.126,38.657 63.019,40.544 63.019,42.864 C63.019,45.183 61.126,47.070 58.800,47.070 ZM58.800,41.343 C57.958,41.343 57.273,42.025 57.273,42.864 C57.273,43.704 57.958,44.385 58.800,44.385 C59.641,44.385 60.326,43.704 60.326,42.864 C60.326,42.025 59.641,41.343 58.800,41.343 Z" class="cls-1"/>
</svg>
