<svg xmlns="http://www.w3.org/2000/svg" xmlns:xlink="http://www.w3.org/1999/xlink" preserveAspectRatio="xMidYMid" width="80" height="80" viewBox="0 0 80 80">
  <defs>
    <style>
      .cls-1 {
        fill: url(#linear-gradient-1);
        fill-rule: evenodd;
      }
    </style>

    <linearGradient id="linear-gradient-1" gradientUnits="userSpaceOnUse" y1="80" x2="80">
      <stop offset="0" stop-color="#0012fc"/>
      <stop offset="1" stop-color="#2997fd"/>
    </linearGradient>
  </defs>
  <path d="M70.089,40.886 C68.527,37.098 64.801,34.424 60.462,34.424 C58.828,34.424 57.281,34.805 55.903,35.480 L55.903,31.912 C55.903,26.847 53.272,22.209 49.171,19.543 C49.171,19.543 47.622,17.188 47.575,17.116 C47.575,17.116 48.057,16.661 48.143,16.573 C49.959,14.684 51.019,12.003 51.344,9.424 C51.443,8.637 51.448,7.831 51.285,7.053 C51.198,6.636 51.060,6.229 50.865,5.851 C50.336,4.830 49.558,4.346 49.054,4.128 C47.805,2.472 46.530,1.433 44.958,0.784 C40.821,-0.924 36.386,0.220 33.661,3.699 C31.931,5.907 29.177,7.161 29.151,7.173 L26.723,8.257 L29.171,9.293 C29.962,9.628 30.734,9.912 31.486,10.150 C31.598,12.925 32.874,15.403 34.837,17.111 L33.240,19.538 C29.134,22.199 26.505,26.828 26.505,31.912 L26.505,37.112 C24.659,35.442 22.215,34.424 19.538,34.424 C15.199,34.424 11.473,37.098 9.911,40.886 C3.904,42.846 -0.000,45.528 -0.000,48.883 L-0.000,54.779 C-0.000,57.140 1.965,59.285 5.746,61.110 C4.481,63.385 3.758,66.002 3.758,68.784 L3.758,80.000 L31.589,80.000 L35.317,80.000 L44.683,80.000 L48.411,80.000 L76.242,80.000 L76.242,68.784 C76.242,66.002 75.519,63.385 74.253,61.110 C78.035,59.285 80.000,57.140 80.000,54.779 L80.000,48.883 C80.000,45.528 76.096,42.846 70.089,40.886 ZM70.794,43.585 C75.808,45.450 77.692,47.466 77.692,48.883 C77.692,50.519 75.181,52.955 68.238,55.032 C67.431,54.573 66.580,54.182 65.693,53.869 C68.788,52.060 70.874,48.698 70.874,44.856 C70.874,44.426 70.845,44.002 70.794,43.585 ZM60.462,36.737 C64.931,36.737 68.567,40.378 68.567,44.856 C68.567,49.332 64.931,52.975 60.462,52.975 C55.994,52.975 52.358,49.332 52.358,44.856 C52.358,40.378 55.994,36.737 60.462,36.737 ZM48.851,22.153 C51.770,24.462 53.595,28.039 53.595,31.912 L53.595,37.025 C53.375,37.220 53.163,37.422 52.959,37.634 C51.949,37.536 50.928,37.449 49.900,37.374 L49.900,32.345 L47.592,32.345 L47.592,37.228 C46.188,37.149 44.777,37.092 43.364,37.058 L44.476,35.979 L44.476,27.108 L48.851,22.153 ZM41.204,21.200 L39.605,19.365 C40.126,19.451 40.659,19.498 41.204,19.498 C41.746,19.498 42.280,19.451 42.803,19.364 L41.204,21.200 ZM42.167,27.833 L42.167,34.999 L41.204,35.936 L40.240,34.999 L40.240,27.838 C40.290,27.838 40.339,27.838 40.392,27.838 C40.833,27.838 41.410,27.837 42.167,27.833 ZM39.795,23.100 L38.884,24.697 L35.288,20.626 L36.301,19.086 L39.795,23.100 ZM46.107,19.086 L47.120,20.626 L43.524,24.695 L42.613,23.100 L46.107,19.086 ZM35.476,5.126 C37.546,2.485 40.923,1.619 44.078,2.922 C45.339,3.442 46.332,4.296 47.401,5.776 L47.662,6.137 L48.078,6.226 C48.152,6.248 48.567,6.394 48.842,6.968 C49.030,7.359 49.213,8.089 49.024,9.347 C48.673,8.441 48.242,7.589 47.737,7.059 L47.071,6.366 L46.268,6.892 C46.252,6.902 44.572,7.987 41.748,8.556 C38.692,9.173 35.535,8.983 32.334,7.993 C33.345,7.304 34.522,6.344 35.476,5.126 ZM33.855,10.770 C40.027,12.046 44.596,10.342 46.530,9.385 C47.018,10.382 47.487,11.999 47.760,13.236 C46.479,15.650 43.955,17.187 41.204,17.187 C37.457,17.187 34.352,14.388 33.855,10.770 ZM28.813,31.912 C28.813,28.025 30.635,24.457 33.554,22.151 L37.933,27.108 L37.933,35.979 L39.005,37.020 C37.610,37.030 36.211,37.062 34.816,37.113 L34.816,32.343 L32.509,32.343 L32.509,37.221 C31.268,37.288 30.034,37.373 28.813,37.475 L28.813,31.912 L28.813,31.912 ZM40.000,39.326 C43.912,39.326 47.731,39.488 51.362,39.793 C50.528,41.293 50.050,43.021 50.050,44.856 C50.050,48.698 52.136,52.060 55.231,53.869 C52.738,54.750 50.529,56.241 48.785,58.161 C45.940,58.344 42.997,58.438 40.000,58.438 C37.003,58.438 34.060,58.344 31.215,58.161 C29.471,56.241 27.262,54.750 24.769,53.869 C27.864,52.060 29.950,48.698 29.950,44.856 C29.950,43.021 29.472,41.293 28.638,39.793 C32.269,39.488 36.088,39.326 40.000,39.326 ZM19.538,36.737 C24.006,36.737 27.642,40.378 27.642,44.856 C27.642,49.332 24.007,52.975 19.538,52.975 C15.069,52.975 11.433,49.332 11.433,44.856 C11.433,40.378 15.069,36.737 19.538,36.737 ZM9.206,43.585 C9.155,44.002 9.126,44.426 9.126,44.856 C9.126,48.698 11.211,52.060 14.307,53.869 C13.420,54.182 12.569,54.573 11.762,55.032 C4.819,52.954 2.307,50.519 2.307,48.883 C2.308,47.466 4.192,45.450 9.206,43.585 ZM2.308,54.779 L2.308,53.083 C3.945,54.471 6.379,55.679 9.375,56.701 C8.509,57.433 7.723,58.256 7.031,59.157 C3.636,57.570 2.308,55.964 2.308,54.779 ZM33.010,77.687 L28.835,77.687 L28.835,69.250 L26.527,69.250 L26.527,77.687 L12.548,77.687 L12.548,69.250 L10.241,69.250 L10.241,77.687 L6.066,77.687 L6.066,68.784 C6.066,61.342 12.109,55.287 19.538,55.287 C26.966,55.287 33.010,61.342 33.010,68.784 L33.010,77.687 ZM44.683,68.784 L44.683,77.687 L35.317,77.687 L35.317,68.784 C35.317,68.030 35.263,67.289 35.161,66.565 C36.755,66.619 38.371,66.647 40.000,66.647 C41.629,66.647 43.245,66.619 44.839,66.565 C44.737,67.289 44.683,68.030 44.683,68.784 ZM45.351,64.232 C43.592,64.299 41.805,64.333 40.000,64.333 C38.195,64.333 36.408,64.299 34.649,64.232 C34.259,62.933 33.707,61.706 33.016,60.572 C35.336,60.691 37.677,60.751 40.000,60.751 C42.323,60.751 44.663,60.691 46.984,60.572 C46.293,61.706 45.741,62.933 45.351,64.232 ZM69.759,77.687 L69.759,69.250 L67.452,69.250 L67.452,77.687 L53.473,77.687 L53.473,69.250 L51.165,69.250 L51.165,77.687 L46.990,77.687 L46.990,68.784 C46.990,61.342 53.034,55.287 60.462,55.287 C67.891,55.287 73.934,61.342 73.934,68.784 L73.934,77.687 L69.759,77.687 ZM77.692,54.779 L77.692,54.779 C77.692,55.964 76.364,57.570 72.969,59.157 C72.277,58.256 71.491,57.433 70.625,56.701 C73.621,55.679 76.055,54.471 77.692,53.083 L77.692,54.779 L77.692,54.779 Z" class="cls-1"/>
</svg>
