<svg xmlns="http://www.w3.org/2000/svg" xmlns:xlink="http://www.w3.org/1999/xlink" preserveAspectRatio="xMidYMid" width="80" height="80" viewBox="0 0 80 80">
  <defs>
    <style>
      .cls-1 {
        fill: url(#linear-gradient-1);
        fill-rule: evenodd;
      }
    </style>

    <linearGradient id="linear-gradient-1" gradientUnits="userSpaceOnUse" y1="80" x2="80">
      <stop offset="0" stop-color="#0012fc"/>
      <stop offset="1" stop-color="#2997fd"/>
    </linearGradient>
  </defs>
  <path d="M49.333,80.000 L30.667,80.000 L-0.000,80.000 L-0.000,22.285 L13.928,0.001 L30.667,0.001 L49.333,0.001 L66.072,0.001 L80.000,22.285 L80.000,80.000 L49.333,80.000 ZM33.333,77.333 L46.667,77.333 L46.667,73.885 L45.333,75.219 L40.000,69.885 L34.667,75.219 L33.333,73.885 L33.333,77.333 ZM30.667,2.667 L15.405,2.667 L3.739,21.334 L30.667,21.334 L30.667,2.667 ZM46.667,2.667 L40.000,2.667 L33.333,2.667 L33.333,21.334 L40.000,21.334 L46.667,21.334 L46.667,2.667 ZM46.667,23.999 L45.333,23.999 C45.333,24.735 44.736,25.334 44.000,25.334 C43.264,25.334 42.667,24.735 42.667,23.999 L37.333,23.999 C37.333,24.735 36.736,25.334 36.000,25.334 C35.264,25.334 34.667,24.735 34.667,23.999 L33.333,23.999 L33.333,28.781 L34.667,27.448 L40.000,32.781 L45.333,27.448 L46.667,28.781 L46.667,23.999 ZM64.595,2.667 L49.333,2.667 L49.333,21.334 L76.261,21.334 L64.595,2.667 ZM77.333,23.999 L49.333,23.999 L49.333,35.219 L45.333,31.219 L40.000,36.553 L34.667,31.219 L30.667,35.219 L30.667,23.999 L2.667,23.999 L2.667,77.333 L30.667,77.333 L30.667,67.448 L34.667,71.449 L40.000,66.115 L45.333,71.449 L49.333,67.448 L49.333,77.333 L77.333,77.333 L77.333,23.999 ZM26.667,40.000 L53.333,40.000 L53.333,64.000 L26.667,64.000 L26.667,40.000 ZM29.333,61.333 L50.667,61.333 L50.667,42.666 L29.333,42.666 L29.333,61.333 ZM46.667,58.666 L45.333,58.666 C44.597,58.666 44.000,58.072 44.000,57.333 C44.000,56.596 44.597,56.000 45.333,56.000 L46.667,56.000 C47.403,56.000 48.000,56.596 48.000,57.333 C48.000,58.072 47.403,58.666 46.667,58.666 ZM46.667,53.334 L44.000,53.334 C43.264,53.334 42.667,52.737 42.667,51.999 C42.667,51.264 43.264,50.666 44.000,50.666 L46.667,50.666 C47.403,50.666 48.000,51.264 48.000,51.999 C48.000,52.737 47.403,53.334 46.667,53.334 ZM46.667,48.000 L38.667,48.000 C37.931,48.000 37.333,47.405 37.333,46.666 C37.333,45.930 37.931,45.333 38.667,45.333 L46.667,45.333 C47.403,45.333 48.000,45.930 48.000,46.666 C48.000,47.405 47.403,48.000 46.667,48.000 ZM36.000,53.334 L33.333,53.334 C32.597,53.334 32.000,52.737 32.000,51.999 C32.000,51.264 32.597,50.666 33.333,50.666 L36.000,50.666 C36.736,50.666 37.333,51.264 37.333,51.999 C37.333,52.737 36.736,53.334 36.000,53.334 ZM34.667,48.000 L33.333,48.000 C32.597,48.000 32.000,47.405 32.000,46.666 C32.000,45.930 32.597,45.333 33.333,45.333 L34.667,45.333 C35.403,45.333 36.000,45.930 36.000,46.666 C36.000,47.405 35.403,48.000 34.667,48.000 ZM39.053,52.945 C38.813,52.693 38.667,52.358 38.667,51.999 C38.667,51.640 38.813,51.305 39.053,51.054 C39.547,50.560 40.440,50.560 40.947,51.054 C41.187,51.305 41.333,51.654 41.333,51.999 C41.333,52.347 41.187,52.693 40.947,52.945 C40.693,53.186 40.347,53.334 40.000,53.334 C39.653,53.334 39.307,53.186 39.053,52.945 ZM33.333,56.000 L41.333,56.000 C42.069,56.000 42.667,56.596 42.667,57.333 C42.667,58.072 42.069,58.666 41.333,58.666 L33.333,58.666 C32.597,58.666 32.000,58.072 32.000,57.333 C32.000,56.596 32.597,56.000 33.333,56.000 ZM40.000,29.334 C39.264,29.334 38.667,28.737 38.667,27.999 C38.667,27.264 39.264,26.667 40.000,26.667 C40.736,26.667 41.333,27.264 41.333,27.999 C41.333,28.737 40.736,29.334 40.000,29.334 ZM44.000,6.668 C44.736,6.668 45.333,7.265 45.333,8.000 C45.333,8.737 44.736,9.334 44.000,9.334 C43.264,9.334 42.667,8.737 42.667,8.000 C42.667,7.265 43.264,6.668 44.000,6.668 ZM44.000,14.667 C44.736,14.667 45.333,15.264 45.333,15.999 C45.333,16.737 44.736,17.334 44.000,17.334 C43.264,17.334 42.667,16.737 42.667,15.999 C42.667,15.264 43.264,14.667 44.000,14.667 ZM40.000,13.334 C39.264,13.334 38.667,12.736 38.667,12.000 C38.667,11.264 39.264,10.667 40.000,10.667 C40.736,10.667 41.333,11.264 41.333,12.000 C41.333,12.736 40.736,13.334 40.000,13.334 ZM36.000,17.334 C35.264,17.334 34.667,16.737 34.667,15.999 C34.667,15.264 35.264,14.667 36.000,14.667 C36.736,14.667 37.333,15.264 37.333,15.999 C37.333,16.737 36.736,17.334 36.000,17.334 ZM36.000,9.334 C35.264,9.334 34.667,8.737 34.667,8.000 C34.667,7.265 35.264,6.668 36.000,6.668 C36.736,6.668 37.333,7.265 37.333,8.000 C37.333,8.737 36.736,9.334 36.000,9.334 ZM41.333,4.000 C41.333,4.737 40.736,5.333 40.000,5.333 C39.264,5.333 38.667,4.737 38.667,4.000 C38.667,3.263 39.264,2.667 40.000,2.667 C40.736,2.667 41.333,3.263 41.333,4.000 ZM38.667,20.000 C38.667,19.264 39.264,18.666 40.000,18.666 C40.736,18.666 41.333,19.264 41.333,20.000 C41.333,20.737 40.736,21.334 40.000,21.334 C39.264,21.334 38.667,20.737 38.667,20.000 Z" class="cls-1"/>
</svg>
