<svg xmlns="http://www.w3.org/2000/svg" xmlns:xlink="http://www.w3.org/1999/xlink" preserveAspectRatio="xMidYMid" width="28" height="23" viewBox="0 0 28 23">
  <defs>
    <style>
      .cls-1 {
        fill: #f44336;
        fill-rule: evenodd;
      }
    </style>
  </defs>
  <path d="M27.647,21.779 C27.202,22.531 26.364,23.002 25.459,23.002 L2.512,23.002 C1.607,23.002 0.768,22.531 0.324,21.779 C-0.121,21.025 -0.108,20.098 0.360,19.356 L11.833,1.161 C12.285,0.446 13.110,0.001 13.985,0.001 C14.861,0.001 15.685,0.446 16.137,1.161 L27.611,19.356 C28.078,20.098 28.092,21.025 27.647,21.779 ZM26.052,20.255 L14.578,2.062 C14.453,1.864 14.226,1.741 13.985,1.741 C13.744,1.741 13.517,1.864 13.393,2.062 L1.919,20.255 C1.791,20.459 1.787,20.715 1.909,20.923 C2.032,21.130 2.262,21.259 2.512,21.259 L25.459,21.259 C25.708,21.259 25.939,21.130 26.062,20.923 C26.184,20.715 26.180,20.459 26.052,20.255 ZM14.011,19.072 C13.267,19.072 12.710,18.490 12.710,17.827 C12.710,17.147 13.267,16.584 14.011,16.584 C14.704,16.584 15.295,17.147 15.295,17.827 C15.295,18.490 14.704,19.072 14.011,19.072 ZM13.994,15.468 C13.453,15.468 12.997,15.258 12.997,14.758 C12.997,12.835 12.761,10.072 12.761,8.151 C12.761,7.520 13.301,7.165 13.994,7.165 C14.653,7.165 15.210,7.520 15.210,8.151 C15.210,10.072 14.974,12.835 14.974,14.758 C14.974,15.258 14.399,15.468 13.994,15.468 Z" class="cls-1"/>
</svg>
