<svg xmlns="http://www.w3.org/2000/svg" xmlns:xlink="http://www.w3.org/1999/xlink" preserveAspectRatio="xMidYMid" width="12" height="20" viewBox="0 0 12 20">
  <defs>
    <style>
      .cls-1 {
        fill: #fff;
        fill-rule: evenodd;
      }
    </style>
  </defs>
  <path d="M11.548,0.004 L8.670,-0.000 C5.436,-0.000 3.347,1.932 3.347,4.922 L3.347,7.191 L0.453,7.191 C0.203,7.191 0.000,7.374 0.000,7.599 L0.000,10.888 C0.000,11.113 0.203,11.295 0.453,11.295 L3.346,11.295 L3.346,19.592 C3.346,19.818 3.549,20.000 3.799,20.000 L7.575,20.000 C7.825,20.000 8.027,19.818 8.027,19.592 L8.027,11.295 L11.411,11.295 C11.661,11.295 11.863,11.113 11.863,10.888 L11.865,7.599 C11.865,7.491 11.817,7.388 11.732,7.311 C11.647,7.234 11.532,7.191 11.412,7.191 L8.027,7.191 L8.027,5.267 C8.027,4.343 8.272,3.873 9.608,3.873 L11.548,3.873 C11.797,3.873 12.000,3.690 12.000,3.465 L12.000,0.412 C12.000,0.187 11.798,0.004 11.548,0.004 Z" class="cls-1"/>
</svg>
