<svg xmlns="http://www.w3.org/2000/svg" xmlns:xlink="http://www.w3.org/1999/xlink" preserveAspectRatio="xMidYMid" width="69" height="70" viewBox="0 0 69 70">
  <defs>
    <style>
      .cls-1 {
        fill: url(#linear-gradient-1);
        fill-rule: evenodd;
      }
    </style>

    <linearGradient id="linear-gradient-1" gradientUnits="userSpaceOnUse" y1="69.5" x2="69" y2="0.5">
      <stop offset="0" stop-color="#0012fc"/>
      <stop offset="1" stop-color="#2997fd"/>
    </linearGradient>
  </defs>
  <path d="M69.000,23.600 L69.000,25.880 L60.950,25.880 L56.350,25.880 C55.715,25.880 55.200,25.370 55.200,24.740 L43.700,24.740 C43.395,24.740 43.102,24.619 42.888,24.405 L36.410,17.982 L13.603,21.914 C13.388,21.951 13.172,21.971 12.957,21.971 C12.078,21.971 11.224,21.665 10.540,21.096 C9.688,20.384 9.200,19.345 9.200,18.242 C9.200,16.922 9.915,15.690 11.065,15.023 L36.151,0.516 C37.253,-0.125 38.589,-0.164 39.727,0.399 L52.021,6.495 L55.200,6.495 C55.200,5.865 55.715,5.356 56.350,5.356 L60.950,5.356 L69.000,5.356 L69.000,7.636 L62.100,7.636 L62.100,23.600 L69.000,23.600 ZM55.200,8.776 L51.750,8.776 C51.572,8.776 51.395,8.734 51.236,8.656 L38.699,2.439 C38.256,2.221 37.737,2.236 37.311,2.484 L12.223,16.993 C11.777,17.251 11.500,17.732 11.500,18.243 C11.500,18.671 11.690,19.074 12.020,19.351 C12.350,19.626 12.786,19.740 13.209,19.669 L34.421,16.011 L33.490,15.087 C32.658,14.263 32.200,13.166 32.200,12.000 C32.200,9.595 34.174,7.636 36.603,7.636 C37.779,7.636 38.884,8.089 39.715,8.913 L45.663,14.811 L44.037,16.423 L38.090,10.526 C37.694,10.133 37.165,9.917 36.603,9.917 C35.443,9.917 34.500,10.852 34.500,12.000 C34.500,12.550 34.724,13.086 35.115,13.474 L44.176,22.459 L55.200,22.459 L55.200,8.776 ZM59.800,7.636 L57.500,7.636 L57.500,23.600 L59.800,23.600 L59.800,7.636 ZM21.155,26.067 C20.753,26.657 20.390,27.274 20.074,27.906 L18.015,26.891 C18.376,26.171 18.791,25.465 19.250,24.791 L21.155,26.067 ZM19.250,29.868 C19.021,30.541 18.836,31.232 18.699,31.923 L16.442,31.487 C16.598,30.695 16.810,29.904 17.071,29.135 L19.250,29.868 ZM19.314,40.316 L17.145,41.076 C16.874,40.313 16.652,39.525 16.485,38.734 L18.738,38.268 C18.883,38.961 19.077,39.652 19.314,40.316 ZM16.100,35.000 C16.100,34.631 16.111,34.264 16.132,33.899 L18.429,34.032 C18.410,34.353 18.400,34.676 18.400,35.001 C18.400,35.392 18.414,35.778 18.441,36.162 L16.147,36.325 C16.116,35.887 16.100,35.445 16.100,35.000 ZM26.450,42.983 C24.548,42.983 23.000,41.449 23.000,39.563 L23.000,30.441 C23.000,28.554 24.548,27.020 26.450,27.020 L42.550,27.020 C44.452,27.020 46.000,28.554 46.000,30.441 L46.000,39.563 C46.000,41.449 44.452,42.983 42.550,42.983 L26.450,42.983 ZM43.700,30.441 C43.700,29.812 43.184,29.301 42.550,29.301 L26.450,29.301 C25.816,29.301 25.300,29.812 25.300,30.441 L25.300,31.581 L43.700,31.581 L43.700,30.441 ZM43.700,39.563 L43.700,33.862 L25.300,33.862 L25.300,39.563 C25.300,40.193 25.816,40.703 26.450,40.703 L42.550,40.703 C43.184,40.703 43.700,40.193 43.700,39.563 ZM52.900,35.001 C52.900,35.369 52.889,35.736 52.867,36.101 L50.571,35.965 C50.590,35.647 50.600,35.325 50.600,35.001 C50.600,34.608 50.586,34.218 50.557,33.834 L52.852,33.671 C52.884,34.110 52.900,34.553 52.900,35.001 ZM52.514,31.264 L50.262,31.730 C50.116,31.035 49.921,30.345 49.685,29.681 L51.854,28.922 C52.124,29.681 52.346,30.470 52.514,31.264 ZM52.560,38.511 C52.404,39.303 52.193,40.093 51.931,40.863 L49.751,40.130 C49.980,39.458 50.166,38.766 50.302,38.075 L52.560,38.511 ZM47.847,43.932 C48.248,43.341 48.612,42.723 48.928,42.093 L50.987,43.109 C50.627,43.827 50.211,44.535 49.752,45.207 L47.847,43.932 ZM13.800,45.265 L25.300,45.265 C25.605,45.265 25.898,45.384 26.113,45.599 L32.591,52.022 L55.396,48.089 C56.493,47.902 57.608,48.200 58.459,48.908 C59.311,49.618 59.799,50.659 59.799,51.762 C59.799,53.082 59.084,54.314 57.934,54.981 L32.847,69.490 C32.262,69.831 31.609,69.999 30.955,69.999 C30.381,69.999 29.804,69.867 29.273,69.605 L16.979,63.509 L13.800,63.509 C13.800,64.138 13.285,64.650 12.650,64.650 L8.050,64.650 L0.000,64.650 L0.000,62.369 L6.900,62.369 L6.900,46.404 L0.000,46.404 L0.000,44.123 L8.050,44.123 L12.650,44.123 C13.285,44.123 13.800,44.633 13.800,45.265 ZM13.800,61.229 L17.250,61.229 C17.428,61.229 17.605,61.268 17.764,61.350 L30.301,67.565 C30.743,67.782 31.262,67.765 31.689,67.520 L56.777,53.010 C57.223,52.751 57.500,52.272 57.500,51.762 C57.500,51.333 57.310,50.929 56.980,50.653 C56.649,50.377 56.217,50.261 55.791,50.335 L34.579,53.993 L35.510,54.918 C36.342,55.741 36.800,56.837 36.800,58.003 C36.800,60.409 34.825,62.369 32.397,62.369 C31.221,62.369 30.116,61.914 29.285,61.089 L23.337,55.192 L24.963,53.580 L30.910,59.478 C31.306,59.872 31.835,60.088 32.397,60.088 C33.557,60.088 34.500,59.152 34.500,58.003 C34.500,57.454 34.276,56.917 33.885,56.529 L24.824,47.544 L13.800,47.544 L13.800,61.229 ZM11.500,46.404 L9.200,46.404 L9.200,62.369 L11.500,62.369 L11.500,46.404 Z" class="cls-1"/>
</svg>
