<svg xmlns="http://www.w3.org/2000/svg" xmlns:xlink="http://www.w3.org/1999/xlink" preserveAspectRatio="xMidYMid" width="70" height="70" viewBox="0 0 70 70">
  <defs>
    <style>
      .cls-1 {
        fill: url(#linear-gradient-1);
        fill-rule: evenodd;
      }
    </style>

    <linearGradient id="linear-gradient-1" gradientUnits="userSpaceOnUse" y1="70" x2="70">
      <stop offset="0" stop-color="#0012fc"/>
      <stop offset="1" stop-color="#2997fd"/>
    </linearGradient>
  </defs>
  <path d="M56.000,22.167 C56.000,21.523 56.523,21.000 57.167,21.000 L61.833,21.000 C62.477,21.000 63.000,21.523 63.000,22.167 L63.000,29.166 C63.000,29.811 62.477,30.333 61.833,30.333 L57.167,30.333 C56.523,30.333 56.000,29.811 56.000,29.166 L56.000,22.167 ZM58.333,27.999 L60.667,27.999 L60.667,23.334 L58.333,23.334 L58.333,27.999 ZM57.167,49.000 L61.833,49.000 C62.477,49.000 63.000,49.523 63.000,50.167 L63.000,57.168 C63.000,57.810 62.477,58.333 61.833,58.333 L57.167,58.333 C56.523,58.333 56.000,57.810 56.000,57.168 L56.000,50.167 C56.000,49.523 56.523,49.000 57.167,49.000 ZM58.333,55.999 L60.667,55.999 L60.667,51.333 L58.333,51.333 L58.333,55.999 ZM56.000,36.166 C56.000,35.523 56.523,35.000 57.167,35.000 L61.833,35.000 C62.477,35.000 63.000,35.523 63.000,36.166 L63.000,43.167 C63.000,43.809 62.477,44.334 61.833,44.334 L57.167,44.334 C56.523,44.334 56.000,43.809 56.000,43.167 L56.000,36.166 ZM58.333,41.999 L60.667,41.999 L60.667,37.332 L58.333,37.332 L58.333,41.999 ZM66.500,69.999 L57.167,69.999 C55.237,69.999 53.667,68.430 53.667,66.500 C53.667,64.571 55.237,63.000 57.167,63.000 C57.369,63.000 57.569,63.017 57.766,63.051 C58.572,61.602 60.103,60.666 61.834,60.666 C63.564,60.666 65.096,61.602 65.900,63.051 C66.098,63.017 66.298,63.000 66.500,63.000 C66.912,63.000 67.300,63.083 67.667,63.214 L67.667,16.334 L54.833,16.334 C54.189,16.334 53.667,15.810 53.667,15.167 C53.667,14.522 54.189,14.000 54.833,14.000 L68.833,14.000 C69.477,14.000 70.000,14.522 70.000,15.167 L70.000,66.500 C70.000,68.430 68.430,69.999 66.500,69.999 ZM65.868,65.523 C65.548,65.729 65.148,65.766 64.797,65.623 C64.444,65.482 64.184,65.175 64.099,64.806 C63.853,63.744 62.921,63.000 61.833,63.000 C60.746,63.000 59.814,63.744 59.568,64.806 C59.482,65.175 59.222,65.482 58.870,65.623 C58.518,65.766 58.119,65.729 57.799,65.523 C57.603,65.397 57.391,65.333 57.167,65.333 C56.524,65.333 56.000,65.857 56.000,66.500 C56.000,67.142 56.524,67.666 57.167,67.666 L66.500,67.666 C67.143,67.666 67.667,67.142 67.667,66.500 C67.667,65.634 66.627,65.034 65.868,65.523 ZM50.167,67.666 L18.667,67.666 L18.667,68.833 C18.667,69.478 18.144,69.999 17.500,69.999 C16.856,69.999 16.333,69.478 16.333,68.833 L16.333,66.500 C16.333,65.856 16.856,65.333 17.500,65.333 L50.167,65.333 C50.811,65.333 51.333,65.856 51.333,66.500 C51.333,67.143 50.811,67.666 50.167,67.666 ZM32.667,43.167 C32.667,43.809 32.144,44.334 31.500,44.334 L26.833,44.334 C26.189,44.334 25.667,43.809 25.667,43.167 L25.667,43.167 L25.667,36.166 C25.667,35.523 26.189,35.000 26.833,35.000 L31.500,35.000 C32.144,35.000 32.667,35.523 32.667,36.166 L32.667,43.167 ZM30.333,37.332 L28.000,37.332 L28.000,41.999 L30.333,41.999 L30.333,37.332 ZM31.500,16.334 L26.833,16.334 C26.189,16.334 25.667,15.812 25.667,15.167 L25.667,8.167 C25.667,7.523 26.189,7.000 26.833,7.000 L31.500,7.000 C32.144,7.000 32.667,7.523 32.667,8.167 L32.667,15.167 C32.667,15.812 32.144,16.334 31.500,16.334 ZM30.333,9.333 L28.000,9.333 L28.000,14.000 L30.333,14.000 L30.333,9.333 ZM32.667,29.166 C32.667,29.811 32.144,30.333 31.500,30.333 L26.833,30.333 C26.189,30.333 25.667,29.811 25.667,29.166 L25.667,29.166 L25.667,22.167 C25.667,21.522 26.189,21.000 26.833,21.000 L31.500,21.000 C32.144,21.000 32.667,21.522 32.667,22.167 L32.667,29.166 ZM30.333,23.334 L28.000,23.334 L28.000,27.999 L30.333,27.999 L30.333,23.334 ZM44.333,43.167 C44.333,43.809 43.811,44.334 43.167,44.334 L38.500,44.334 C37.856,44.334 37.333,43.809 37.333,43.167 L37.333,36.166 C37.333,35.523 37.856,35.000 38.500,35.000 L43.167,35.000 C43.811,35.000 44.333,35.523 44.333,36.166 L44.333,43.167 ZM42.000,37.332 L39.667,37.332 L39.667,41.999 L42.000,41.999 L42.000,37.332 ZM43.167,16.334 L38.500,16.334 C37.856,16.334 37.333,15.812 37.333,15.167 L37.333,8.167 C37.333,7.523 37.856,7.000 38.500,7.000 L43.167,7.000 C43.811,7.000 44.333,7.523 44.333,8.167 L44.333,15.167 C44.333,15.812 43.811,16.334 43.167,16.334 ZM42.000,9.333 L39.667,9.333 L39.667,14.000 L42.000,14.000 L42.000,9.333 ZM44.333,29.166 C44.333,29.811 43.811,30.333 43.167,30.333 L38.500,30.333 C37.856,30.333 37.333,29.811 37.333,29.166 L37.333,22.167 C37.333,21.522 37.856,21.000 38.500,21.000 L43.167,21.000 C43.811,21.000 44.333,21.522 44.333,22.167 L44.333,29.166 ZM42.000,23.334 L39.667,23.334 L39.667,27.999 L42.000,27.999 L42.000,23.334 ZM35.828,56.339 C36.038,56.561 36.167,56.864 36.167,57.168 C36.167,57.470 36.038,57.774 35.828,57.996 C35.607,58.205 35.303,58.333 35.000,58.333 C34.697,58.333 34.393,58.205 34.172,57.996 C33.962,57.773 33.833,57.470 33.833,57.168 C33.833,56.864 33.962,56.559 34.172,56.339 C34.615,55.906 35.385,55.906 35.828,56.339 ZM29.167,63.000 C28.523,63.000 28.000,62.477 28.000,61.834 L28.000,51.333 L24.500,51.333 C23.856,51.333 23.333,50.811 23.333,50.167 C23.333,49.523 23.856,49.000 24.500,49.000 L45.500,49.000 C46.144,49.000 46.667,49.523 46.667,50.167 C46.667,50.811 46.144,51.333 45.500,51.333 L42.000,51.333 L42.000,61.834 C42.000,62.477 41.477,63.000 40.833,63.000 C40.189,63.000 39.667,62.477 39.667,61.834 L39.667,51.333 L30.333,51.333 L30.333,61.834 C30.333,62.477 29.811,63.000 29.167,63.000 ZM50.167,63.000 C49.523,63.000 49.000,62.477 49.000,61.834 L49.000,2.332 L21.000,2.332 L21.000,61.834 C21.000,62.477 20.477,63.000 19.833,63.000 C19.189,63.000 18.667,62.477 18.667,61.834 L18.667,1.167 C18.667,0.524 19.189,0.001 19.833,0.001 L50.167,0.001 C50.811,0.001 51.333,0.524 51.333,1.167 L51.333,61.834 C51.333,62.477 50.811,63.000 50.167,63.000 ZM15.167,16.334 L2.333,16.334 L2.333,38.500 C2.333,39.144 1.811,39.666 1.167,39.666 C0.523,39.666 0.000,39.144 0.000,38.500 L0.000,15.167 C0.000,14.522 0.523,14.000 1.167,14.000 L15.167,14.000 C15.811,14.000 16.333,14.522 16.333,15.167 C16.333,15.812 15.811,16.334 15.167,16.334 ZM5.833,41.999 C11.600,41.999 11.667,57.014 11.666,57.168 C11.666,59.983 9.659,62.340 7.000,62.882 L7.000,68.833 C7.000,69.478 6.477,69.999 5.833,69.999 C5.189,69.999 4.667,69.478 4.667,68.833 L4.667,62.882 C2.008,62.340 0.000,59.983 0.000,57.168 C0.000,57.014 0.067,41.999 5.833,41.999 ZM5.833,60.666 C7.763,60.666 9.333,59.097 9.333,57.168 C9.333,51.355 7.772,44.334 5.833,44.334 C3.894,44.334 2.333,51.355 2.333,57.168 C2.333,59.097 3.904,60.666 5.833,60.666 ZM12.833,30.333 L8.167,30.333 C7.523,30.333 7.000,29.811 7.000,29.166 L7.000,22.167 C7.000,21.522 7.523,21.000 8.167,21.000 L12.833,21.000 C13.477,21.000 14.000,21.522 14.000,22.167 L14.000,29.166 C14.000,29.811 13.477,30.333 12.833,30.333 ZM11.667,23.334 L9.333,23.334 L9.333,27.999 L11.667,27.999 L11.667,27.999 L11.667,23.334 ZM9.333,38.500 C9.333,39.144 8.810,39.666 8.167,39.666 C7.523,39.666 7.000,39.144 7.000,38.500 L7.000,36.166 C7.000,35.523 7.523,35.000 8.167,35.000 L12.833,35.000 C13.477,35.000 14.000,35.523 14.000,36.168 L14.000,43.167 C14.000,43.809 13.477,44.334 12.833,44.334 C12.189,44.334 11.667,43.809 11.667,43.167 L11.667,37.332 L9.333,37.332 L9.333,38.500 Z" class="cls-1"/>
</svg>
