<svg xmlns="http://www.w3.org/2000/svg" xmlns:xlink="http://www.w3.org/1999/xlink" width="69" height="70" viewBox="0 0 69 70">
  <defs>
    <style>
      .cls-1 {
        fill-rule: evenodd;
        fill: url(#linear-gradient);
      }
    </style>
    <linearGradient id="linear-gradient" x1="925" y1="1092.5" x2="994" y2="1023.5" gradientUnits="userSpaceOnUse">
      <stop offset="0" stop-color="#0012fc"/>
      <stop offset="1" stop-color="#2997fd"/>
    </linearGradient>
  </defs>
  <path id="trigers3" class="cls-1" d="M940.36,1042.83l2.173-1.14,2.174,1.14-0.415-2.41,1.759-1.71-2.43-.35-1.088-2.2-1.086,2.2-2.431.35,1.759,1.71Zm9.374-.32,2.174-1.14,2.173,1.14-0.416-2.42,1.759-1.71-2.43-.35-1.086-2.2-1.088,2.2-2.43.35,1.759,1.71ZM940.36,1051l2.173-1.14,2.174,1.14-0.415-2.42,1.759-1.71-2.43-.35-1.088-2.19-1.086,2.19-2.431.35,1.759,1.71Zm9.374-.33,2.174-1.14,2.173,1.14-0.416-2.41,1.759-1.71-2.43-.35-1.086-2.2-1.088,2.2-2.43.35,1.759,1.71ZM983.475,1037v-4.67H937.834a5.741,5.741,0,0,0,1.2-3.5,5.848,5.848,0,1,0-9.356,4.64v50.2h-0.347a1.989,1.989,0,0,0-1.992,1.98v1.52h-0.347a1.989,1.989,0,0,0-1.992,1.98V1093h16.373v-3.85a1.99,1.99,0,0,0-1.992-1.98h-0.347v-1.52a1.99,1.99,0,0,0-1.992-1.98H936.7v-14h37.424v4.66H994V1037H983.475Zm-46.78,18.67h44.441v4.66H936.7v-4.66Zm23.39-7h21.051v4.66H960.085v-4.66Zm23.39,4.66h8.186V1058h-8.186v-4.67Zm0-2.33v-4.67h8.186V1051h-8.186Zm-2.339-4.67H960.085v-4.66h21.051v4.66Zm2.339,14h8.186V1065h-8.186v-4.67Zm8.186-21V1044h-8.186v-4.67h8.186Zm-10.525-4.66v4.66H960.085v-4.66h21.051Zm-23.39,18.66H936.7v-18.66h21.051v18.66Zm-24.56-28a3.5,3.5,0,1,1-3.508,3.5A3.508,3.508,0,0,1,933.186,1025.33Zm5.848,65.34H927.339v-1.17h11.695v1.17Zm-2.339-3.5h-7.017V1086H936.7v1.17Zm-2.339-3.5h-2.339v-49h2.339v49Zm2.339-16.34v-4.66h44.441v4.66H936.7Zm40.448,4.67h-0.685v-2.33h3.024Zm3.307,0,2.558-2.55,0.467-.47v-1.65h8.186V1072H980.45Z" transform="translate(-925 -1023)"/>
</svg>
