<svg xmlns="http://www.w3.org/2000/svg" xmlns:xlink="http://www.w3.org/1999/xlink" preserveAspectRatio="xMidYMid" width="68" height="70" viewBox="0 0 68 70">
  <defs>
    <style>
      .cls-1 {
        fill: url(#linear-gradient-1);
        fill-rule: evenodd;
      }
    </style>

    <linearGradient id="linear-gradient-1" gradientUnits="userSpaceOnUse" y1="69" x2="68" y2="1">
      <stop offset="0" stop-color="#0012fc"/>
      <stop offset="1" stop-color="#2997fd"/>
    </linearGradient>
  </defs>
  <path d="M67.769,12.093 C67.633,12.355 67.460,12.576 67.262,12.776 L55.244,24.852 C54.748,25.343 54.152,25.692 53.514,25.962 C52.875,26.223 52.208,26.401 51.512,26.405 L44.643,26.405 C44.431,26.405 44.226,26.379 44.027,26.337 L38.670,31.878 C40.042,33.600 40.867,35.780 40.867,38.157 C40.867,43.709 36.385,48.211 30.859,48.211 C25.331,48.211 20.851,43.709 20.851,38.157 C20.851,32.604 25.331,28.101 30.859,28.101 C33.119,28.101 35.195,28.863 36.871,30.133 L42.044,24.780 C41.845,24.383 41.724,23.944 41.722,23.471 L41.722,16.573 C41.728,15.874 41.904,15.203 42.165,14.561 C42.432,13.919 42.779,13.322 43.268,12.823 L55.289,0.745 C55.488,0.545 55.708,0.370 55.968,0.234 C56.228,0.100 56.536,0.002 56.884,0.001 C57.154,0.001 57.441,0.065 57.690,0.197 C57.940,0.328 58.146,0.513 58.297,0.713 C58.601,1.120 58.716,1.553 58.763,1.991 L59.359,7.978 C59.367,8.100 59.451,8.291 59.604,8.443 C59.753,8.595 59.944,8.679 60.065,8.688 L66.021,9.285 C66.349,9.319 66.670,9.395 66.985,9.556 C67.296,9.718 67.612,9.983 67.807,10.363 C67.938,10.613 68.004,10.903 68.002,11.173 C68.002,11.522 67.903,11.832 67.769,12.093 ZM36.905,33.706 L31.757,39.035 C31.276,39.531 30.483,39.544 29.987,39.059 C29.492,38.577 29.480,37.780 29.962,37.284 L35.113,31.951 C33.903,31.111 32.438,30.616 30.859,30.616 C26.720,30.616 23.352,33.999 23.352,38.157 C23.352,42.317 26.720,45.699 30.859,45.699 C34.998,45.699 38.365,42.317 38.365,38.157 C38.365,36.491 37.819,34.955 36.905,33.706 ZM56.872,8.230 L56.373,3.215 L45.039,14.603 C44.879,14.755 44.637,15.126 44.478,15.522 C44.312,15.919 44.221,16.352 44.226,16.574 L44.226,22.523 L57.130,9.173 C57.003,8.880 56.906,8.567 56.872,8.230 ZM59.817,11.189 C59.491,11.155 59.191,11.063 58.908,10.941 L46.390,23.893 L51.512,23.893 C51.733,23.898 52.165,23.808 52.558,23.639 C52.953,23.478 53.321,23.235 53.475,23.076 L64.806,11.690 L59.817,11.189 ZM49.773,29.337 C51.012,32.020 51.710,35.007 51.710,38.157 C51.710,49.725 42.373,59.106 30.859,59.106 C19.343,59.106 10.008,49.725 10.008,38.157 C10.008,26.587 19.343,17.209 30.859,17.209 C33.672,17.209 36.355,17.772 38.804,18.789 L38.804,21.542 C36.399,20.376 33.703,19.722 30.859,19.722 C20.742,19.722 12.511,27.991 12.511,38.157 C12.511,48.323 20.742,56.593 30.859,56.593 C40.976,56.593 49.207,48.323 49.207,38.157 C49.207,34.964 48.395,31.960 46.968,29.337 L49.773,29.337 ZM40.159,12.085 L40.159,12.087 C37.243,11.067 34.116,10.505 30.859,10.505 C15.223,10.505 2.502,23.285 2.502,38.996 C2.502,54.706 15.223,67.488 30.859,67.488 C46.495,67.488 59.216,54.706 59.216,38.996 C59.216,34.874 58.332,30.957 56.759,27.418 C56.941,27.269 57.124,27.108 57.308,26.926 L58.674,25.552 C60.625,29.619 61.718,34.178 61.718,38.994 C61.718,56.118 47.902,69.999 30.859,69.999 C13.819,69.999 0.000,56.118 0.000,38.994 C0.000,21.874 13.819,7.992 30.860,7.990 C34.753,7.990 38.475,8.721 41.907,10.045 L41.205,10.750 C40.761,11.199 40.437,11.642 40.159,12.085 Z" class="cls-1"/>
</svg>
