<svg xmlns="http://www.w3.org/2000/svg" xmlns:xlink="http://www.w3.org/1999/xlink" preserveAspectRatio="xMidYMid" width="78" height="70" viewBox="0 0 78 70">
  <defs>
    <style>
      .cls-1 {
        fill: url(#linear-gradient-1);
        fill-rule: evenodd;
      }
    </style>

    <linearGradient id="linear-gradient-1" gradientUnits="userSpaceOnUse" x1="4" y1="70" x2="74">
      <stop offset="0" stop-color="#0012fc"/>
      <stop offset="1" stop-color="#2997fd"/>
    </linearGradient>
  </defs>
  <path d="M60.859,56.584 L55.880,56.584 C55.193,56.584 54.635,56.031 54.635,55.350 C54.635,54.667 55.193,54.114 55.880,54.114 L60.859,54.114 C61.546,54.114 62.103,54.667 62.103,55.350 C62.103,56.031 61.546,56.584 60.859,56.584 ZM60.859,45.055 L55.880,45.055 C55.193,45.055 54.635,44.502 54.635,43.820 C54.635,43.139 55.193,42.584 55.880,42.584 L60.859,42.584 C61.546,42.584 62.103,43.139 62.103,43.820 C62.103,44.502 61.546,45.055 60.859,45.055 ZM47.915,21.620 C48.574,21.424 49.268,21.796 49.465,22.448 L51.518,29.249 L53.498,25.972 C53.723,25.599 54.128,25.372 54.565,25.372 C55.003,25.372 55.408,25.599 55.633,25.972 L57.613,29.249 L59.666,22.447 C59.864,21.795 60.558,21.423 61.216,21.619 C61.874,21.814 62.248,22.503 62.051,23.156 L59.187,32.641 C59.046,33.111 58.639,33.454 58.149,33.513 C58.098,33.519 58.046,33.523 57.995,33.523 C57.561,33.523 57.154,33.298 56.927,32.923 L54.565,29.009 L52.203,32.923 C51.950,33.343 51.471,33.573 50.981,33.513 C50.492,33.454 50.085,33.111 49.943,32.641 L47.080,23.158 C46.883,22.504 47.257,21.814 47.915,21.620 ZM26.420,54.114 L50.901,54.114 C51.589,54.114 52.146,54.667 52.146,55.350 C52.146,56.031 51.589,56.584 50.901,56.584 L26.420,56.584 C25.733,56.584 25.176,56.031 25.176,55.350 C25.176,54.667 25.733,54.114 26.420,54.114 ZM14.446,21.621 C15.104,21.426 15.798,21.797 15.995,22.450 L18.048,29.253 L20.028,25.975 C20.253,25.602 20.658,25.374 21.096,25.374 C21.534,25.374 21.939,25.602 22.164,25.975 L24.143,29.253 L26.197,22.449 C26.394,21.796 27.088,21.426 27.746,21.621 C28.405,21.816 28.779,22.505 28.581,23.159 L25.718,32.644 C25.577,33.113 25.170,33.456 24.680,33.516 C24.191,33.576 23.712,33.344 23.458,32.925 L21.096,29.012 L18.734,32.925 C18.507,33.301 18.100,33.525 17.666,33.525 C17.615,33.525 17.563,33.522 17.511,33.516 C17.022,33.456 16.615,33.113 16.474,32.644 L13.611,23.159 C13.413,22.507 13.787,21.817 14.446,21.621 ZM14.803,50.819 L21.442,50.819 C22.129,50.819 22.686,51.372 22.686,52.055 L22.686,58.643 C22.686,59.325 22.129,59.879 21.442,59.879 L14.803,59.879 C14.116,59.879 13.559,59.325 13.559,58.643 L13.559,52.055 C13.559,51.372 14.116,50.819 14.803,50.819 ZM16.048,57.408 L20.197,57.408 L20.197,53.290 L16.048,53.290 L16.048,57.408 ZM13.559,40.525 C13.559,39.843 14.116,39.290 14.803,39.290 L21.442,39.290 C22.129,39.290 22.686,39.843 22.686,40.525 L22.686,47.112 C22.686,47.795 22.129,48.348 21.442,48.348 L14.803,48.348 C14.116,48.348 13.559,47.795 13.559,47.112 L13.559,40.525 ZM16.048,45.878 L20.197,45.878 L20.197,41.761 L16.048,41.761 L16.048,45.878 ZM41.415,33.514 C40.926,33.575 40.446,33.343 40.193,32.923 L37.831,29.011 L35.469,32.923 C35.242,33.299 34.835,33.524 34.401,33.524 C34.350,33.524 34.298,33.521 34.247,33.514 C33.757,33.454 33.350,33.112 33.209,32.644 L30.346,23.159 C30.148,22.505 30.522,21.816 31.181,21.621 C31.840,21.426 32.533,21.796 32.731,22.449 L34.784,29.252 L36.763,25.973 C36.988,25.601 37.393,25.372 37.831,25.372 C38.268,25.372 38.674,25.601 38.898,25.973 L40.878,29.252 L42.932,22.448 C43.129,21.796 43.823,21.424 44.481,21.620 C45.140,21.814 45.513,22.504 45.316,23.158 L42.453,32.642 C42.312,33.112 41.904,33.454 41.415,33.514 ZM52.146,43.820 C52.146,44.502 51.589,45.055 50.901,45.055 L26.420,45.055 C25.733,45.055 25.176,44.502 25.176,43.820 C25.176,43.139 25.733,42.584 26.420,42.584 L50.901,42.584 C51.589,42.584 52.146,43.139 52.146,43.820 ZM76.755,54.352 C77.443,54.352 78.000,54.906 78.000,55.588 L78.000,68.764 C78.000,69.446 77.443,69.999 76.755,69.999 L1.245,69.999 C0.557,69.999 0.000,69.446 0.000,68.764 L0.000,1.235 C0.000,0.553 0.557,0.001 1.245,0.001 L76.755,0.001 C77.443,0.001 78.000,0.553 78.000,1.235 L78.000,50.646 C78.000,51.329 77.443,51.881 76.755,51.881 C76.068,51.881 75.511,51.329 75.511,50.646 L75.511,12.353 L2.489,12.353 L2.489,67.529 L75.511,67.529 L75.511,55.588 C75.511,54.906 76.068,54.352 76.755,54.352 ZM51.032,9.883 L75.511,9.883 L75.511,2.471 L51.032,2.471 L51.032,9.883 ZM48.543,9.883 L48.543,2.471 L2.489,2.471 L2.489,9.883 L48.543,9.883 ZM70.117,7.494 C69.385,7.494 68.789,6.903 68.789,6.177 C68.789,5.450 69.385,4.859 70.117,4.859 C70.849,4.859 71.445,5.450 71.445,6.177 C71.445,6.903 70.849,7.494 70.117,7.494 ZM63.313,7.494 C62.581,7.494 61.985,6.903 61.985,6.177 C61.985,5.450 62.581,4.859 63.313,4.859 C64.045,4.859 64.640,5.450 64.640,6.177 C64.640,6.903 64.045,7.494 63.313,7.494 ZM56.508,7.494 C55.776,7.494 55.181,6.903 55.181,6.177 C55.181,5.450 55.776,4.859 56.508,4.859 C57.241,4.859 57.836,5.450 57.836,6.177 C57.836,6.903 57.241,7.494 56.508,7.494 Z" class="cls-1"/>
</svg>
