<svg xmlns="http://www.w3.org/2000/svg" xmlns:xlink="http://www.w3.org/1999/xlink" preserveAspectRatio="xMidYMid" width="22" height="12" viewBox="0 0 22 12">
  <defs>
    <style>
      .cls-1 {
        fill: #fff;
        fill-rule: evenodd;
      }
    </style>
  </defs>
  <path d="M21.882,10.839 C21.856,10.784 21.831,10.738 21.808,10.702 C21.426,10.045 20.697,9.238 19.620,8.281 L19.597,8.259 L19.586,8.248 L19.574,8.237 L19.563,8.237 C19.074,7.792 18.765,7.492 18.635,7.339 C18.398,7.047 18.345,6.751 18.475,6.451 C18.566,6.225 18.910,5.747 19.505,5.016 C19.819,4.629 20.067,4.319 20.250,4.085 C21.571,2.406 22.144,1.332 21.968,0.865 L21.900,0.756 C21.854,0.690 21.735,0.630 21.545,0.575 C21.354,0.520 21.109,0.511 20.811,0.547 L17.513,0.569 C17.460,0.551 17.383,0.553 17.284,0.575 C17.185,0.597 17.135,0.608 17.135,0.608 L17.078,0.635 L17.032,0.668 C16.994,0.690 16.952,0.728 16.906,0.783 C16.860,0.838 16.822,0.902 16.792,0.975 C16.433,1.858 16.024,2.680 15.566,3.439 C15.284,3.892 15.024,4.285 14.787,4.617 C14.551,4.949 14.352,5.194 14.192,5.351 C14.031,5.508 13.886,5.634 13.757,5.729 C13.627,5.824 13.528,5.864 13.459,5.849 C13.390,5.835 13.325,5.820 13.264,5.806 C13.157,5.740 13.071,5.650 13.006,5.537 C12.941,5.424 12.898,5.281 12.875,5.110 C12.852,4.938 12.838,4.790 12.835,4.666 C12.831,4.542 12.833,4.367 12.840,4.140 C12.848,3.914 12.852,3.761 12.852,3.680 C12.852,3.403 12.857,3.102 12.869,2.777 C12.880,2.451 12.890,2.194 12.898,2.004 C12.905,1.814 12.909,1.613 12.909,1.402 C12.909,1.190 12.895,1.024 12.869,0.903 C12.843,0.783 12.802,0.666 12.749,0.553 C12.695,0.440 12.617,0.352 12.514,0.290 C12.411,0.228 12.283,0.178 12.130,0.142 C11.726,0.054 11.210,0.007 10.584,-0.001 C9.164,-0.015 8.251,0.073 7.847,0.263 C7.686,0.343 7.541,0.452 7.412,0.591 C7.274,0.752 7.255,0.839 7.354,0.854 C7.812,0.920 8.137,1.077 8.328,1.325 L8.396,1.456 C8.450,1.551 8.504,1.719 8.557,1.960 C8.610,2.201 8.645,2.468 8.660,2.760 C8.698,3.293 8.698,3.750 8.660,4.129 C8.622,4.509 8.586,4.805 8.551,5.017 C8.517,5.228 8.465,5.400 8.396,5.531 C8.328,5.663 8.282,5.743 8.259,5.772 C8.236,5.802 8.217,5.820 8.202,5.827 C8.103,5.864 7.999,5.882 7.893,5.882 C7.786,5.882 7.656,5.831 7.503,5.729 C7.350,5.626 7.192,5.486 7.028,5.307 C6.864,5.128 6.679,4.878 6.472,4.556 C6.266,4.235 6.052,3.855 5.831,3.417 L5.648,3.099 C5.533,2.895 5.377,2.597 5.178,2.207 C4.980,1.816 4.804,1.438 4.651,1.073 C4.590,0.919 4.499,0.803 4.377,0.722 L4.319,0.689 C4.281,0.660 4.220,0.629 4.136,0.596 C4.052,0.563 3.964,0.540 3.873,0.525 L0.734,0.547 C0.414,0.547 0.196,0.616 0.082,0.755 L0.036,0.821 C0.013,0.857 0.001,0.916 0.001,0.996 C0.001,1.076 0.024,1.175 0.070,1.292 C0.528,2.322 1.026,3.315 1.565,4.271 C2.103,5.228 2.571,5.999 2.968,6.583 C3.365,7.167 3.769,7.718 4.182,8.237 C4.594,8.755 4.867,9.088 5.000,9.234 C5.134,9.380 5.239,9.489 5.315,9.562 L5.602,9.825 C5.785,10.000 6.054,10.210 6.409,10.455 C6.764,10.700 7.158,10.941 7.589,11.178 C8.020,11.415 8.522,11.609 9.095,11.759 C9.668,11.909 10.225,11.969 10.767,11.939 L12.084,11.939 C12.352,11.917 12.554,11.837 12.691,11.698 L12.737,11.644 C12.768,11.600 12.796,11.532 12.823,11.441 C12.850,11.350 12.863,11.249 12.863,11.140 C12.855,10.826 12.880,10.543 12.937,10.291 C12.994,10.039 13.059,9.849 13.132,9.722 C13.205,9.594 13.287,9.486 13.378,9.399 C13.470,9.311 13.535,9.258 13.573,9.240 C13.611,9.221 13.642,9.209 13.665,9.201 C13.848,9.143 14.064,9.199 14.312,9.371 C14.560,9.543 14.793,9.755 15.011,10.006 C15.228,10.259 15.490,10.541 15.795,10.856 C16.101,11.169 16.368,11.403 16.597,11.556 L16.826,11.688 C16.979,11.776 17.177,11.856 17.422,11.929 C17.666,12.002 17.879,12.020 18.063,11.984 L20.995,11.940 C21.285,11.940 21.510,11.894 21.670,11.803 C21.831,11.712 21.926,11.611 21.957,11.502 C21.987,11.392 21.989,11.268 21.963,11.129 C21.936,10.991 21.909,10.894 21.882,10.839 Z" class="cls-1"/>
</svg>
